<?xml version="1.0" encoding="UTF-8" standalone="no"?>
<!-- Uploaded to: SVG Repo, www.svgrepo.com, Transformed by: SVG Repo Mixer Tools -->

<svg
   width="256px"
   height="256px"
   viewBox="0 0 24.00 24.00"
   fill="none"
   stroke="#FFFFFF"
   stroke-width="0.00024000000000000003"
   version="1.1"
   id="svg7"
   sodipodi:docname="gift-svgrepo.svg"
   inkscape:version="1.1.2 (0a00cf5339, 2022-02-04)"
   xmlns:inkscape="http://www.inkscape.org/namespaces/inkscape"
   xmlns:sodipodi="http://sodipodi.sourceforge.net/DTD/sodipodi-0.dtd"
   xmlns="http://www.w3.org/2000/svg"
   xmlns:svg="http://www.w3.org/2000/svg">
  <defs
     id="defs11" />
  <sodipodi:namedview
     id="namedview9"
     pagecolor="#ffffff"
     bordercolor="#666666"
     borderopacity="1.0"
     inkscape:pageshadow="2"
     inkscape:pageopacity="0.0"
     inkscape:pagecheckerboard="0"
     showgrid="false"
     inkscape:zoom="2.3395291"
     inkscape:cx="125.02516"
     inkscape:cy="126.73491"
     inkscape:window-width="1920"
     inkscape:window-height="1001"
     inkscape:window-x="0"
     inkscape:window-y="0"
     inkscape:window-maximized="1"
     inkscape:current-layer="svg7" />
  <g
     id="SVGRepo_bgCarrier"
     stroke-width="0" />
  <g
     id="SVGRepo_tracerCarrier"
     stroke-linecap="round"
     stroke-linejoin="round" />
  <g
     id="SVGRepo_iconCarrier"
     transform="matrix(1.3546666,0,0,1.3546666,-4.2500098,-4.2619875)">
    <path
       d="M 19.5,7.75 H 18.1 C 18.5,7.27 18.75,6.67 18.75,6 18.75,4.48 17.52,3.25 16,3.25 14.32,3.25 12.84,4.14 12,5.46 11.16,4.14 9.68,3.25 8,3.25 6.48,3.25 5.25,4.48 5.25,6 5.25,6.67 5.5,7.27 5.9,7.75 H 4.5 C 3.81,7.75 3.25,8.31 3.25,9 v 2.5 c 0,0.6 0.43,1.08 1,1.2 v 6.8 c 0,0.69 0.56,1.25 1.25,1.25 h 13 c 0.69,0 1.25,-0.56 1.25,-1.25 v -6.8 c 0.57,-0.12 1,-0.6 1,-1.2 V 9 c 0,-0.69 -0.56,-1.25 -1.25,-1.25 z m -0.25,3.5 h -6.5 v -2 h 6.5 z M 16,4.75 c 0.69,0 1.25,0.56 1.25,1.25 0,0.69 -0.56,1.25 -1.25,1.25 H 12.84 C 13.18,5.82 14.47,4.75 16,4.75 Z m -8,0 c 1.53,0 2.82,1.07 3.16,2.5 H 8 C 7.31,7.25 6.75,6.69 6.75,6 6.75,5.31 7.31,4.75 8,4.75 Z m -3.25,4.5 h 6.5 v 2 h -6.5 z m 1,3.5 h 5.5 v 6.5 h -5.5 z m 12.5,6.5 h -5.5 v -6.5 h 5.5 z"
       fill="#ffffff"
       id="path4" />
  </g>
</svg>
